<svg id="Layer_1" data-name="Layer 1" xmlns="http://www.w3.org/2000/svg" viewBox="0 0 1020 68"><title>rosat</title><path d="M450.34,26.9H433.2a3.22,3.22,0,0,0-2.34.78,3,3,0,0,0-.79,2.27v21h-7.62v-21a11.48,11.48,0,0,1,.5-3.52,10.07,10.07,0,0,1,1.33-2.74,9.24,9.24,0,0,1,1.92-2,11.1,11.1,0,0,1,2.27-1.36,11.67,11.67,0,0,1,2.4-.78,11.39,11.39,0,0,1,2.27-.25h17.2Z"/><path d="M489.68,40.25a11.63,11.63,0,0,1-.5,3.53,10.32,10.32,0,0,1-1.32,2.75,9,9,0,0,1-1.9,2,11.11,11.11,0,0,1-2.27,1.36,11.68,11.68,0,0,1-2.4.78,11.48,11.48,0,0,1-2.3.25H465.25a12.21,12.21,0,0,1-3.46-.56,10.1,10.1,0,0,1-6.14-5.14,10.63,10.63,0,0,1-1.07-5V29.94a10.57,10.57,0,0,1,1.07-5,10.1,10.1,0,0,1,6.14-5.14,12.23,12.23,0,0,1,3.46-.56H479a10.79,10.79,0,0,1,5,1.05A9.91,9.91,0,0,1,487.28,23a10.54,10.54,0,0,1,1.83,3.47,12,12,0,0,1,.57,3.49ZM482.07,30a3.12,3.12,0,0,0-.79-2.34A3.17,3.17,0,0,0,479,26.9H465.31a3.17,3.17,0,0,0-2.31.78,3,3,0,0,0-.79,2.27V40.25a3.09,3.09,0,0,0,.79,2.29,3.14,3.14,0,0,0,2.31.79H479a3.08,3.08,0,0,0,2.31-.79,3.17,3.17,0,0,0,.76-2.29Z"/><path d="M526.77,40.25a11.63,11.63,0,0,1-.5,3.53A10.35,10.35,0,0,1,525,46.54a9,9,0,0,1-1.9,2,11.11,11.11,0,0,1-2.27,1.36,11.67,11.67,0,0,1-2.4.78,11.49,11.49,0,0,1-2.3.25H495.45V43.33H516a3.18,3.18,0,0,0,2.34-.79,3.09,3.09,0,0,0,.79-2.29q-.15-3-3.08-3H504.27a9.49,9.49,0,0,1-4.28-.88,8.74,8.74,0,0,1-2.86-2.2,8.38,8.38,0,0,1-1.58-2.84,9.43,9.43,0,0,1-.48-2.84,9.21,9.21,0,0,1,.91-4.29,8.57,8.57,0,0,1,2.29-2.83,9,9,0,0,1,3-1.57,10.53,10.53,0,0,1,3-.48H523V26.9H504.33a2.6,2.6,0,0,0-.92.13,1.09,1.09,0,0,0-.5.35,1,1,0,0,0-.19.47,4.14,4.14,0,0,0,0,.48,1.74,1.74,0,0,0,.18.73.92.92,0,0,0,.37.38,1.17,1.17,0,0,0,.5.13h12.35a10.79,10.79,0,0,1,5,1.05,9.92,9.92,0,0,1,3.31,2.65,10.55,10.55,0,0,1,1.83,3.47A12,12,0,0,1,526.77,40.25Z"/><path d="M564.8,40.46a11.81,11.81,0,0,1-.56,3.41,10.19,10.19,0,0,1-1.8,3.4,10,10,0,0,1-3.25,2.62,10.38,10.38,0,0,1-4.88,1.05H540.57a11.78,11.78,0,0,1-3.41-.56,10.2,10.2,0,0,1-3.4-1.8,10,10,0,0,1-2.62-3.25,10.37,10.37,0,0,1-1.05-4.88,11.92,11.92,0,0,1,.56-3.43,10,10,0,0,1,5.05-6,10.37,10.37,0,0,1,4.88-1.05h13.74v7.27H540.57a3.05,3.05,0,0,0-2.4,1,3.41,3.41,0,0,0-.85,2.36,2.89,2.89,0,0,0,1,2.33,3.48,3.48,0,0,0,2.33.83h13.68a3.07,3.07,0,0,0,2.4-.94,3.36,3.36,0,0,0,.85-2.34V29.77a3.12,3.12,0,0,0-.92-2.37,3.24,3.24,0,0,0-2.33-.88H537.58V19.28h16.73a11.79,11.79,0,0,1,3.41.56,10.2,10.2,0,0,1,3.4,1.8,10.06,10.06,0,0,1,2.62,3.25,10.38,10.38,0,0,1,1.05,4.88Z"/><path d="M600,26.9h-13.3V50.95H579V26.9h-9.9V19.28H579V8.94h7.71V19.28H600Z"/></svg>